<?xml version="1.0" encoding="utf-8"?>
<!-- Generator: Adobe Illustrator 16.0.0, SVG Export Plug-In . SVG Version: 6.00 Build 0)  -->
<!DOCTYPE svg PUBLIC "-//W3C//DTD SVG 1.1//EN" "http://www.w3.org/Graphics/SVG/1.1/DTD/svg11.dtd">
<svg version="1.1" id="Layer_1" xmlns="http://www.w3.org/2000/svg" xmlns:xlink="http://www.w3.org/1999/xlink" x="0px" y="0px"
	 width="30px" height="30px" viewBox="0 0 30 30" enable-background="new 0 0 30 30" xml:space="preserve">
<g>
	<path d="M30,22.494c0,4.137-3.327,7.492-7.434,7.492H7.697c-4.105,0-7.437-3.355-7.437-7.492V7.5C0.26,3.357,3.591,0,7.697,0
		h14.868C26.669,0,30,3.357,30,7.5V22.494L30,22.494z M28.51,8.998c0-4.143-3.325-7.496-7.434-7.496H9.183
		c-4.105,0-7.434,3.355-7.434,7.496v11.998c0,4.135,3.329,7.492,7.434,7.492h11.894c4.108,0,7.434-3.357,7.434-7.492V8.998z"/>
	<rect x="0.96" y="8.952" width="6.49" height="1.498"/>
	<polygon points="10.585,7.297 7.457,10.452 6.404,9.39 9.532,6.235 	"/>
	<path d="M14.439,5.116c0,1.658-1.332,3-2.971,3c-1.642,0-2.972-1.344-2.972-3c0-1.655,1.328-2.998,2.97-2.998
		C13.107,2.118,14.439,3.459,14.439,5.116z M11.466,3.616c-0.821,0-1.486,0.672-1.486,1.5c0,0.83,0.667,1.498,1.486,1.498
		c0.819,0,1.488-0.669,1.488-1.498C12.954,4.29,12.287,3.616,11.466,3.616z"/>
	<rect x="1.498" y="13.124" width="12.753" height="1.499"/>
	<path d="M19.781,13.871c0,1.656-1.331,2.998-2.974,2.998c-1.641,0-2.97-1.344-2.97-2.998c0-1.656,1.329-2.999,2.97-2.999
		C18.45,10.871,19.781,12.215,19.781,13.871z M16.808,12.371c-0.821,0-1.484,0.673-1.484,1.497c0,0.826,0.663,1.501,1.484,1.501
		c0.82,0,1.485-0.672,1.485-1.501C18.293,13.041,17.628,12.371,16.808,12.371z"/>
	<rect x="1.498" y="18.017" width="19.34" height="1.497"/>
	<path d="M26.414,18.763c0,1.658-1.331,3-2.972,3c-1.645,0-2.976-1.344-2.976-3c0-1.653,1.331-2.997,2.976-2.997
		C25.083,15.766,26.414,17.107,26.414,18.763z M23.44,17.262c-0.82,0-1.485,0.673-1.485,1.498c0,0.83,0.665,1.501,1.485,1.501
		c0.822,0,1.484-0.671,1.484-1.501C24.925,17.935,24.261,17.262,23.44,17.262z"/>
	<rect x="7.318" y="23.919" width="8.437" height="1.5"/>
	<polygon points="4.069,27.174 7.3,23.917 8.351,24.977 5.12,28.233 	"/>
	<path d="M18.075,27.494c-1.64,0-2.973-1.342-2.973-2.997c0-1.656,1.333-3.003,2.973-3.003c1.643,0,2.974,1.347,2.974,3.003
		C21.049,26.154,19.716,27.494,18.075,27.494z M19.564,24.497c0-0.835-0.669-1.502-1.489-1.502c-0.818,0-1.484,0.667-1.484,1.502
		c0,0.821,0.665,1.497,1.484,1.497C18.896,25.998,19.564,25.318,19.564,24.497z"/>
</g>
</svg>
