<?xml version="1.0" encoding="utf-8"?>
<!-- Generator: Adobe Illustrator 16.0.0, SVG Export Plug-In . SVG Version: 6.00 Build 0)  -->
<!DOCTYPE svg PUBLIC "-//W3C//DTD SVG 1.1//EN" "http://www.w3.org/Graphics/SVG/1.1/DTD/svg11.dtd">
<svg version="1.1" id="Layer_1" xmlns="http://www.w3.org/2000/svg" xmlns:xlink="http://www.w3.org/1999/xlink" x="0px" y="0px"
	 width="30px" height="30px" viewBox="-12 -12 30 30" enable-background="new -12 -12 30 30" xml:space="preserve">
<path fill="none" d="M-18.107,13.885h1.234v1.234h-1.234V13.885z"/>
<g>
	<path fill="#FFFFFF" d="M17.718,10.454c0,4.032-3.271,7.304-7.308,7.304h-14.62c-4.036,0-7.312-3.271-7.312-7.304v-14.62
		c0-4.039,3.275-7.312,7.312-7.312h14.618c4.036,0,7.31,3.273,7.31,7.312V10.454L17.718,10.454z M16.254-2.705
		c0-4.039-3.27-7.308-7.308-7.308H-2.749c-4.036,0-7.309,3.271-7.309,7.308V8.993c0,4.031,3.273,7.304,7.309,7.304H8.946
		c4.038,0,7.308-3.273,7.308-7.304V-2.705z"/>
	<rect x="-10.833" y="-2.75" fill="#FFFFFF" width="6.381" height="1.461"/>
	
		<rect x="-5.6" y="-4.075" transform="matrix(-0.7071 0.7071 -0.7071 -0.7071 -8.2118 -3.2851)" fill="#FFFFFF" width="4.35" height="1.464"/>
	<path fill="#FFFFFF" d="M2.42-6.49c0,1.616-1.31,2.924-2.922,2.924c-1.614,0-2.922-1.31-2.922-2.924s1.306-2.923,2.92-2.923
		C1.11-9.413,2.42-8.105,2.42-6.49z M-0.504-7.952c-0.807,0-1.461,0.655-1.461,1.462c0,0.809,0.656,1.46,1.461,1.46
		c0.806,0,1.463-0.652,1.463-1.46C0.959-7.296,0.303-7.952-0.504-7.952z"/>
	<rect x="-10.305" y="1.318" fill="#FFFFFF" width="12.539" height="1.461"/>
	<path fill="#FFFFFF" d="M7.672,2.046c0,1.614-1.308,2.924-2.925,2.924c-1.613,0-2.92-1.312-2.92-2.924
		c0-1.615,1.308-2.924,2.92-2.924C6.364-0.879,7.672,0.431,7.672,2.046z M4.747,0.583c-0.807,0-1.459,0.656-1.459,1.46
		c0,0.805,0.652,1.463,1.459,1.463c0.808,0,1.462-0.655,1.462-1.463C6.209,1.237,5.555,0.583,4.747,0.583z"/>
	<rect x="-10.305" y="6.088" fill="#FFFFFF" width="19.016" height="1.46"/>
	<path fill="#FFFFFF" d="M14.193,6.815c0,1.616-1.309,2.925-2.922,2.925c-1.617,0-2.926-1.31-2.926-2.925
		c0-1.612,1.309-2.922,2.926-2.922C12.885,3.893,14.193,5.201,14.193,6.815z M11.269,5.352c-0.806,0-1.461,0.657-1.461,1.461
		c0,0.809,0.655,1.463,1.461,1.463c0.808,0,1.46-0.654,1.46-1.463C12.729,6.009,12.076,5.352,11.269,5.352z"/>
	<rect x="-4.582" y="11.842" fill="#FFFFFF" width="8.295" height="1.463"/>
	
		<rect x="-7.918" y="13.215" transform="matrix(0.7072 -0.707 0.707 0.7072 -11.52 0.0728)" fill="#FFFFFF" width="4.492" height="1.461"/>
	<path fill="#FFFFFF" d="M5.994,15.328c-1.612,0-2.923-1.308-2.923-2.922c0-1.615,1.311-2.927,2.923-2.927
		c1.615,0,2.923,1.312,2.923,2.927C8.917,14.021,7.608,15.328,5.994,15.328z M7.458,12.406c0-0.813-0.657-1.465-1.464-1.465
		c-0.805,0-1.459,0.652-1.459,1.465c0,0.802,0.653,1.459,1.459,1.459C6.801,13.87,7.458,13.208,7.458,12.406z"/>
</g>
</svg>
